<svg width="17" height="17" viewBox="0 0 17 17" fill="none" xmlns="http://www.w3.org/2000/svg">
<path d="M15.1168 4.35532C15.513 3.95924 15.7356 3.422 15.7357 2.8618C15.7357 2.30159 15.5133 1.7643 15.1172 1.36812C14.7211 0.971947 14.1839 0.749338 13.6237 0.749268C13.0635 0.749197 12.5262 0.971671 12.13 1.36775L2.12948 11.3705C1.9555 11.544 1.82684 11.7576 1.75482 11.9925L0.764954 15.2535C0.745588 15.3183 0.744126 15.3872 0.760721 15.4527C0.777317 15.5183 0.811353 15.5782 0.859217 15.6259C0.907081 15.6737 0.966988 15.7077 1.03258 15.7242C1.09818 15.7407 1.16701 15.7391 1.23179 15.7196L4.49361 14.7305C4.72827 14.6591 4.94183 14.5312 5.11555 14.3581L15.1168 4.35532Z" stroke="#155DFC" stroke-width="1.49865" stroke-linecap="round" stroke-linejoin="round"/>
</svg>
