<svg width="18" height="18" viewBox="0 0 18 18" fill="none" xmlns="http://www.w3.org/2000/svg">
<g clip-path="url(#clip0_2_205)">
<path d="M7.49329 8.24255V12.7385" stroke="#E60076" stroke-width="1.49865" stroke-linecap="round" stroke-linejoin="round"/>
<path d="M10.4906 8.24255V12.7385" stroke="#E60076" stroke-width="1.49865" stroke-linecap="round" stroke-linejoin="round"/>
<path d="M14.2372 4.49597V14.9866C14.2372 15.384 14.0793 15.7652 13.7982 16.0463C13.5172 16.3273 13.136 16.4852 12.7385 16.4852H5.24524C4.84777 16.4852 4.46658 16.3273 4.18553 16.0463C3.90448 15.7652 3.74658 15.384 3.74658 14.9866V4.49597" stroke="#E60076" stroke-width="1.49865" stroke-linecap="round" stroke-linejoin="round"/>
<path d="M2.24792 4.49597H15.7358" stroke="#E60076" stroke-width="1.49865" stroke-linecap="round" stroke-linejoin="round"/>
<path d="M5.99463 4.49597V2.99731C5.99463 2.59984 6.15252 2.21866 6.43357 1.9376C6.71463 1.65655 7.09582 1.49866 7.49328 1.49866H10.4906C10.8881 1.49866 11.2692 1.65655 11.5503 1.9376C11.8314 2.21866 11.9892 2.59984 11.9892 2.99731V4.49597" stroke="#E60076" stroke-width="1.49865" stroke-linecap="round" stroke-linejoin="round"/>
</g>
<defs>
<clipPath id="clip0_2_205">
<rect width="17.9839" height="17.9839" fill="white"/>
</clipPath>
</defs>
</svg>
